<svg width="100" height="60" viewBox="0 0 100 60" fill="none" xmlns="http://www.w3.org/2000/svg">
<mask id="mask0_103_154" style="mask-type:alpha" maskUnits="userSpaceOnUse" x="0" y="0" width="100" height="60">
<rect width="100" height="60" fill="#D9D9D9"/>
</mask>
<g mask="url(#mask0_103_154)">
<path fill-rule="evenodd" clip-rule="evenodd" d="M100 30C88.9543 30 80.4141 20.1253 73.5782 11.4489C68.0849 4.47657 59.5652 0 50 0C40.4348 0 31.9151 4.47657 26.4218 11.4489C19.5859 20.1253 11.0457 30 -1.07288e-05 30H-540C-551.046 30 -560 38.9543 -560 50V204C-560 215.046 -551.046 224 -540 224H640C651.046 224 660 215.046 660 204V50C660 38.9543 651.046 30 640 30H100Z" fill="#F8F8FA"/>
</g>
</svg>
